<svg width="18" height="19" viewBox="0 0 18 19" fill="none" xmlns="http://www.w3.org/2000/svg">
<path d="M13.1906 2.16664C15.7195 3.60921 17.3811 6.38016 17.3811 9.49997C17.3811 11.1576 16.8895 12.7779 15.9686 14.1562C15.0477 15.5344 13.7388 16.6086 12.2073 17.243C10.6759 17.8773 8.9908 18.0433 7.36505 17.7199C5.73931 17.3965 4.24597 16.5983 3.07387 15.4262C1.90177 14.2541 1.10356 12.7608 0.780182 11.135C0.456801 9.50927 0.622772 7.82414 1.25711 6.29272C1.89144 4.7613 2.96565 3.45237 4.34389 2.53146C5.72213 1.61055 7.3425 1.11902 9.0001 1.11902" stroke="#666666" stroke-width="1.14286" stroke-linecap="round" stroke-linejoin="round"/>
<path d="M13.1914 6.3571V2.16663H17.3819" stroke="#666666" stroke-width="1.14286" stroke-linecap="round" stroke-linejoin="round"/>
</svg>
